Patient4_TMGait_0pt4_02_right_25_EMG.mot
version=1
nRows=23
nColumns=33
inDegrees=no
endheader
time	1LAddLong	2LGlutMax	3LGlutMed	4LIliopsoas	5LSemiMemb	6LBicFemLong	7LRecFem	8LVastMed	9LVastLat	10LGasMed	11LTibAnt	12lTibPost	13LPeroneusLong	14LSol	15LExtDigLong	16LFlexDigLong	17RAddLong	18RGlutMax	19RGlutMed	20RIliopsoas	21RSemiMemb	22RBicFemLong	23RRecFem	24RVastMed	25RVastLat	26RGasMed	27RTibAnt	28RTibPost	29RPeroneusLong	30RSol	31RExtDigLong	32RFlexDigLong
33.88	0.008698	0.013885	-0.033569	0.002136	0.031128	-0.008087	-0.076599	0.000916	0.074005	0.063782	-0.000458	0.002289	-0.13016	0.19638	0.021515	-0.010834	-0.011749	-0.030823	0.095825	-0.033722	0.13672	-0.13977	-0.18326	-0.24597	-0.002441	0.12695	0.091705	-0.064087	-0.56747	0.28564	0.001221	-0.010071
33.881	0.001373	0.015564	-0.061646	-0.006866	0.042114	0.0737	-0.02655	-0.000458	0.036926	0.13001	0.007019	0.005035	-0.08728	0.345	0.010681	-0.001678	0.016937	-0.020905	0.087128	-0.030212	0.12238	-0.19638	-0.14313	-0.17441	0.019684	0.02655	0.076141	0.059509	-0.41611	0.37415	0	-0.010529
33.882	-0.006561	-0.031891	-0.053864	-0.012512	0.01236	0.14221	-0.007019	-0.001678	-0.04837	0.14313	0.001678	0.005188	0.20233	0.27741	-0.003662	0.003204	0.032196	-0.033875	0.12238	-0.023804	0.13611	-0.25589	-0.089417	-0.16968	-0.035095	-0.033875	0.011292	0.006104	0.25284	0.10315	0.001373	-0.012207
33.883	-0.001526	-0.015106	-0.044556	-0.005493	-0.023041	0.13458	-0.014648	0.005646	-0.037231	0.071869	-0.002441	0.002747	0.10727	0.14221	-0.016174	0.003815	-0.037079	-0.025177	0.061646	-0.040131	0.13214	-0.16373	-0.1471	-0.090485	-0.030365	-0.032043	-0.045624	-0.24918	0.31799	0.25818	0.002441	-0.009155
33.884	-0.006714	-0.01236	-0.051575	0.016479	-0.038147	0.082855	-0.031586	0.00473	-0.019379	-0.10757	-0.011444	0.002594	0.14557	0.080872	-0.002136	-0.010529	-0.096436	0.023956	0.11185	-0.019684	-0.11154	-0.04837	-0.18784	0.031128	0.014801	-0.026855	-0.112	-0.2945	0.35996	-0.02182	-0.00351	-0.006256
33.885	-0.007477	-0.018158	-0.10162	0.031586	0.033722	0.097961	-0.022888	0.000763	-0.002594	-0.24338	0.005951	0.006866	0.28534	0.18097	0.011597	-0.01236	-0.026703	-0.005035	0.094452	-0.010071	-0.07843	-0.18539	-0.13702	0.005341	-0.020294	-0.029907	-0.059814	-0.007935	0.14664	-0.027313	0	-0.007629
33.886	0.000458	-0.023956	-0.090485	0.011444	0.04837	0.13275	-0.039215	0.00824	-0.009155	-0.17609	-0.002136	0.002289	-0.36102	0.23636	0.028381	0.005188	-0.015259	-0.03952	0.25406	0.033264	0.052643	-0.24094	-0.16098	0.040894	0.031281	-0.001068	-0.00412	0.17258	0.068054	-0.1796	0.000305	-0.005646
33.887	-0.00946	0.02182	-0.015411	-0.009003	0.044861	0.13687	-0.053406	0.007324	0.006256	-0.06897	-0.009308	0.007324	-0.30533	0.059509	-0.041656	0.00061	-0.028687	-0.037079	0.088959	0.010529	0.1506	-0.28061	-0.1506	0.005341	0.042267	0.000153	0.074768	0.26245	0.10864	-0.23514	0.00412	0.006866
33.888	0.001373	0.054474	0.13504	-0.012665	0.015411	0.12924	-0.040436	0.006409	-0.005951	0.029297	0.009308	0.005188	-0.11719	-0.041351	-0.070801	-0.020447	-0.007782	0.006409	0.23819	-0.020142	0.22949	-0.16663	-0.037842	-0.092621	-0.03067	0.017548	0.17716	0.15167	-0.001984	0.39871	0.001221	-0.007629
33.889	0.005646	0.062408	0.12695	0.001221	0.048676	-0.062256	-0.017853	0.005646	-0.041199	0.001068	-0.023499	0.00351	0.37674	0.037231	-0.006866	0.001984	0.012665	-0.050812	0.22018	-0.032806	0.13046	-0.087738	-0.048218	-0.076294	-0.052948	0.03952	0.02594	0.044403	-0.11078	0.21378	0.000153	-0.003815
33.89	0.007629	0.06958	0.058289	0.005798	0.03067	-0.18524	-0.039825	0.00061	-0.051575	0.045776	-0.017242	0.000153	-0.024872	0.077057	-0.003662	0.001221	-0.000916	-0.067291	0.34744	-0.061951	0.057831	-0.018158	-0.10986	-0.06958	-0.010071	0.039825	-0.092316	0.011292	-0.035706	0.20721	0.00061	-0.008545
33.891	0.013885	0.032501	0.026398	0.012207	-0.037537	-0.12222	0.002136	0.006104	-0.045776	0.085754	-0.012207	0.002289	-0.28641	0.051727	-0.030975	0.000153	0.002747	-0.15823	0.28931	-0.003204	-0.051575	0.007324	-0.16083	0.015411	0.010223	0.030212	-0.57053	-0.011292	0.16312	0.10056	0.002136	-0.002747
33.892	-0.002747	0.049896	0.052185	0.011749	-0.046997	-0.25055	0.013733	0.008392	-0.053101	0.076752	-0.006561	0.000305	-0.38025	-0.065002	-0.056763	-0.007324	0.018616	-0.097809	0.23438	0.069885	0.051575	-0.16007	-0.22934	0.044861	-0.010071	0.02121	-0.63278	-0.028229	0.16495	-0.1265	0.006256	-0.003052
33.893	-0.005798	0.071259	0.018616	0.016632	-0.015564	-0.35568	-0.019531	0.018463	-0.01236	0.10193	-0.005188	0.000763	-0.007019	-0.12329	-0.065918	-0.003357	0.046997	-0.056152	0.11581	0.074463	0.14465	-0.19623	-0.35187	-0.007019	-0.032959	0.010376	0.07843	-0.023193	0.17425	-0.028992	0.004425	-0.001984
33.894	-0.001984	0.063324	-0.052643	-0.008392	-0.040131	-0.25757	-0.062256	0	0.01358	0.050201	-0.007324	0.002747	0.17288	-0.091858	-0.003815	-0.010529	0.047302	-0.066223	0.18723	0.031128	0.15182	-0.16968	-0.32227	0.012512	0.00351	0.012665	1.519	-0.036316	0.20676	0.35248	0.001831	-0.013733
33.895	0.016785	0.033112	-0.063629	0.004425	-0.034027	-0.17471	-0.072784	0.004578	0.035553	-0.02533	-0.015717	0.006256	-0.038605	0.021515	-0.002441	-0.00061	0.045166	-0.10223	0.016327	0.01709	-0.05188	-0.18005	-0.29892	-0.005798	0.043945	0.00061	0.27252	-0.028534	0.16586	0.29739	0.007477	-0.003357
33.896	0.013428	0.071564	0.015259	0.01358	-0.022888	-0.077057	-0.036774	-0.001068	0.070801	-0.016022	-0.017395	0.00412	-0.26199	0.083313	0.027161	0.004425	0.026245	-0.031891	-0.1886	-0.053711	-0.36301	0.057678	-0.18356	-0.15457	0.021057	0.002747	-0.39719	-0.037384	0.10422	0.23972	0.002136	-0.009003
33.897	0.017853	0.079498	0.083771	0.002441	-0.014496	-0.027618	0.019989	-0.004272	0.10407	0.012512	-0.006866	0.005798	-0.1387	0.1236	0.014801	0.001984	0.009918	-0.057373	0.030212	-0.041199	-0.014191	0.13046	-0.18585	-0.23575	-0.022278	0.002747	-0.10117	-0.033264	-0.023499	0.21759	0.003052	-0.012512
33.898	0.013275	0.079041	0.09491	0.006561	-0.011902	0.066071	0.059509	0.010681	0.051575	0.026703	-0.002899	-0.00351	0.10498	0.077209	-0.033569	-0.009613	0.024872	-0.062561	0.30197	-0.0914	0.13458	0.087585	-0.14069	-0.29602	-0.010376	0.007629	-0.15839	-0.032806	-0.086517	0.080414	0.001373	-0.001678
33.899	-0.001526	0.061188	0.014038	-0.000305	-0.000458	0.081482	0.031738	0.014191	-0.020599	-0.020142	-0.007629	0.002136	0.18829	0.04303	-0.020294	-0.002899	0.031128	-0.085449	0.31326	-0.072937	0.028381	0.088501	-0.057526	-0.27741	0.027313	0.020142	-0.35172	-0.031433	0.07431	-0.12131	0.00412	0.003204
33.9	-0.017853	0.095825	-0.020447	0.01358	-0.038757	0.13092	0.037079	0.014038	-0.061493	-0.048218	0.007019	-0.027161	0.15305	0.023346	0.016174	-0.001526	-0.006561	-0.093384	0.30853	-0.096893	0.01358	0.18799	-0.27084	-0.16968	0.11246	0.013428	0.15564	-0.028229	0.11108	-0.21027	0.005035	-0.006104
33.901	-0.015564	0.10101	0.041656	0.016174	-0.11368	0.12573	0.019379	0.009308	-0.090637	-0.06546	0.004578	-0.001678	0.093384	0.088043	0.025482	0.011597	-0.041656	-0.12283	0.30472	-0.11673	0.01236	0.19379	-0.48187	0.037079	0.25803	-0.002594	0.51971	-0.031586	-0.045166	-0.068359	0.00412	-0.002594
33.902	-0.002289	0.095978	0.054016	0.004578	-0.082245	-0.020142	-0.043945	0.005188	-0.11719	-0.030975	0.020294	-0.003357	0.058136	0.088196	0.021973	0.009766	-0.017853	-0.11093	0.27084	-0.082245	-0.085754	0.012665	-0.35629	0.17929	0.26901	-0.009003	0.28595	-0.022736	0.049286	-0.054626	0.002441	-0.007324
